<?xml version="1.0" standalone="no"?>
<!DOCTYPE svg PUBLIC "-//W3C//DTD SVG 20010904//EN"
 "http://www.w3.org/TR/2001/REC-SVG-20010904/DTD/svg10.dtd">
<svg version="1.0" xmlns="http://www.w3.org/2000/svg"
 width="2048.000000pt" height="2048.000000pt" viewBox="0 0 2048.000000 2048.000000"
 preserveAspectRatio="xMidYMid meet">

<g transform="translate(0.000000,2048.000000) scale(0.100000,-0.100000)"
fill="#000000" stroke="none">
<path d="M5677 13880 c-220 -20 -503 -68 -687 -116 -299 -79 -507 -157 -785
-294 -479 -236 -905 -566 -1279 -990 -428 -485 -723 -1044 -886 -1675 -127
-493 -157 -1071 -84 -1600 141 -1013 672 -1933 1501 -2597 234 -187 466 -337
733 -473 426 -216 928 -360 1429 -411 183 -18 532 -20 711 -5 383 34 772 127
1130 268 535 212 997 517 1410 932 340 340 578 668 783 1077 176 350 357 940
357 1162 0 48 -4 58 -34 88 l-34 34 -411 0 c-450 0 -457 -1 -479 -57 -6 -15
-16 -55 -23 -88 -17 -92 -72 -276 -124 -420 -202 -557 -607 -1090 -1100 -1446
-417 -301 -859 -485 -1348 -560 -192 -30 -599 -37 -797 -14 -258 29 -541 97
-755 182 -390 153 -755 383 -1045 658 -403 383 -670 803 -833 1310 -102 316
-141 579 -140 945 2 533 105 966 343 1428 161 312 327 541 569 782 332 331
701 572 1115 727 348 130 622 182 1006 190 382 8 670 -34 1008 -146 322 -106
543 -214 822 -401 576 -387 1059 -1064 1250 -1752 17 -62 36 -126 42 -141 23
-59 18 -58 472 -57 230 0 427 5 441 10 39 15 58 63 50 129 -22 179 -157 613
-269 866 -213 478 -489 879 -871 1260 -320 320 -620 540 -1018 745 -461 238
-905 375 -1412 436 -153 18 -616 27 -758 14z m677 -226 c1079 -98 2126 -704
2773 -1605 299 -417 518 -898 636 -1396 l5 -23 -274 0 -273 0 -11 43 c-104
391 -347 865 -617 1202 -318 398 -676 687 -1128 910 -375 186 -681 280 -1070
331 -186 25 -619 25 -810 1 -605 -78 -1175 -321 -1670 -714 -146 -115 -408
-380 -519 -523 -473 -610 -706 -1258 -723 -2007 -10 -408 28 -701 137 -1062
277 -917 985 -1702 1882 -2084 283 -121 594 -205 908 -244 186 -24 624 -23
803 0 319 43 654 135 927 257 227 101 510 275 725 446 148 118 408 380 535
539 295 371 511 799 619 1230 l27 110 273 3 272 2 -7 -37 c-15 -91 -78 -329
-121 -458 -107 -326 -235 -587 -439 -895 -150 -227 -294 -401 -503 -610 -190
-190 -338 -315 -541 -457 -990 -694 -2223 -877 -3354 -499 -304 101 -507 194
-784 360 -289 172 -517 351 -767 601 -552 552 -916 1231 -1064 1986 -118 606
-80 1293 105 1879 162 515 426 986 780 1392 409 469 882 812 1450 1051 355
149 783 252 1164 280 137 10 501 5 654 -9z"/>
<path d="M5284 11402 c-12 -4 -213 -196 -448 -428 l-426 -420 0 -738 c0 -620
2 -741 14 -764 22 -41 807 -819 839 -831 43 -17 1445 -15 1474 2 20 11 560
565 756 774 85 92 87 95 87 144 0 70 -21 115 -64 135 -45 22 -86 7 -108 -39
-12 -26 -691 -737 -703 -737 -4 0 -240 285 -422 509 l-103 125 0 671 0 671
108 135 c202 254 415 509 421 504 3 -3 168 -167 366 -365 l360 -360 49 0 c39
0 53 5 77 29 29 30 37 72 21 113 -9 21 -106 122 -513 534 -258 261 -334 333
-359 338 -42 8 -1399 6 -1426 -2z m1054 -212 l143 -5 -233 -282 -233 -282
-610 -1 -609 0 169 173 c94 94 217 221 275 280 58 60 114 113 125 117 21 9
726 9 973 0z m-378 -1380 l0 -600 -665 0 -665 0 0 600 0 600 665 0 665 0 0
-600z m152 -933 c48 -62 151 -189 228 -282 l141 -170 -563 -3 -563 -2 -208
207 c-115 115 -240 243 -279 286 l-70 77 613 -1 614 0 87 -112z"/>
<path d="M17805 10725 c-141 -32 -256 -94 -349 -188 -285 -287 -284 -795 1
-1074 175 -172 443 -241 708 -183 107 23 258 94 314 148 48 46 51 67 48 354
l-2 208 -28 27 -27 28 -226 0 -226 0 -24 -28 c-33 -38 -33 -96 0 -134 l24 -28
136 3 c75 2 145 1 156 -3 19 -6 20 -15 20 -161 l0 -155 -73 -34 c-186 -86
-395 -83 -551 9 -64 38 -162 147 -196 217 -91 192 -76 433 36 596 114 165 317
255 505 224 85 -14 158 -41 233 -86 98 -59 179 -39 192 46 5 31 1 41 -26 73
-37 41 -161 105 -255 131 -83 22 -311 29 -390 10z"/>
<path d="M15922 10697 l-22 -23 0 -672 0 -671 23 -27 c20 -23 32 -27 71 -27
38 0 53 5 74 27 l27 26 3 260 4 260 176 0 177 -1 28 -40 c15 -22 93 -137 174
-257 80 -119 155 -227 166 -240 42 -47 139 -46 172 1 32 46 21 69 -150 322
-91 135 -165 247 -165 248 0 2 19 10 43 17 176 52 278 194 279 386 0 184 -80
319 -233 389 -89 40 -143 45 -494 45 l-332 0 -21 -23z m754 -193 c102 -48 148
-166 112 -286 -16 -56 -78 -121 -140 -149 -50 -23 -65 -24 -300 -27 l-248 -4
0 249 0 248 262 -3 c254 -4 265 -5 314 -28z"/>
<path d="M14219 10489 c-31 -33 -39 -91 -19 -129 6 -10 52 -48 103 -82 50 -35
169 -118 262 -183 l170 -120 -1938 -3 c-1066 -1 -2807 -1 -3868 0 l-1929 3 81
60 c44 32 87 71 95 87 33 63 2 139 -64 159 -48 14 -65 6 -182 -88 -47 -38
-139 -111 -205 -162 -66 -51 -125 -103 -132 -115 -13 -23 -17 -84 -7 -111 4
-9 58 -60 122 -113 63 -53 164 -138 224 -188 60 -51 121 -94 136 -97 61 -12
122 43 122 110 0 22 -21 49 -105 131 -58 57 -105 105 -105 107 0 3 1747 5
3883 5 l3882 -1 -25 -20 c-24 -20 -322 -234 -456 -327 -89 -62 -108 -122 -58
-181 22 -27 33 -31 72 -31 56 0 59 2 301 174 102 73 270 190 374 260 103 71
199 142 212 158 30 36 33 91 6 131 -17 26 -283 215 -678 481 -196 133 -222
141 -274 85z"/>
<path d="M13673 10315 c-33 -14 -63 -59 -63 -95 0 -34 28 -78 60 -95 22 -11
64 -15 178 -15 139 0 151 2 183 23 69 46 60 145 -16 181 -44 21 -295 22 -342
1z"/>
<path d="M12958 9571 c-28 -25 -33 -36 -33 -75 0 -36 6 -51 28 -73 l27 -28
484 -3 484 -3 31 26 c36 31 49 82 31 126 -26 61 -9 59 -537 59 l-483 0 -32
-29z"/>
</g>
</svg>
